<?xml version="1.0" encoding="utf-8"?>
<!-- Generator: Adobe Illustrator 25.2.1, SVG Export Plug-In . SVG Version: 6.00 Build 0)  -->
<!DOCTYPE svg PUBLIC "-//W3C//DTD SVG 1.1//EN" "http://www.w3.org/Graphics/SVG/1.1/DTD/svg11.dtd" [
	<!ENTITY ns_extend "http://ns.adobe.com/Extensibility/1.0/">
	<!ENTITY ns_ai "http://ns.adobe.com/AdobeIllustrator/10.0/">
	<!ENTITY ns_graphs "http://ns.adobe.com/Graphs/1.0/">
	<!ENTITY ns_vars "http://ns.adobe.com/Variables/1.0/">
	<!ENTITY ns_imrep "http://ns.adobe.com/ImageReplacement/1.0/">
	<!ENTITY ns_sfw "http://ns.adobe.com/SaveForWeb/1.0/">
	<!ENTITY ns_custom "http://ns.adobe.com/GenericCustomNamespace/1.0/">
	<!ENTITY ns_adobe_xpath "http://ns.adobe.com/XPath/1.0/">
]>
<svg version="1.1" xmlns:x="&ns_extend;" xmlns:i="&ns_ai;" xmlns:graph="&ns_graphs;"
	 xmlns="http://www.w3.org/2000/svg" xmlns:xlink="http://www.w3.org/1999/xlink" x="0px" y="0px" width="750px" height="750px"
	 viewBox="0 0 750 750" enable-background="new 0 0 750 750" xml:space="preserve">
<metadata>
	<sfw  xmlns="&ns_sfw;">
		<slices></slices>
		<sliceSourceBounds  bottomLeftOrigin="true" height="15500" width="8688" x="-4000" y="-6314"></sliceSourceBounds>
	</sfw>
</metadata>
<g id="FILL-BACKGROUND">
	<rect x="0" fill="#FFFFFF" width="750" height="750"/>
</g>
<g id="N-TEXT">
</g>
<g id="N-DIMENSIONS">
</g>
<g id="_x32_D_x24_AG-DIAGRAM">
	<g id="POLYLINE_2593_">
		<g>
			<g>
				
					<line fill="none" stroke="#C346FF" stroke-width="3.25" stroke-linecap="round" stroke-linejoin="round" x1="201.5" y1="629.993" x2="203.5" y2="629.993"/>
				
					<line fill="none" stroke="#C346FF" stroke-width="3.25" stroke-linecap="round" stroke-linejoin="round" stroke-dasharray="4,7" x1="210.5" y1="629.993" x2="449" y2="629.993"/>
				
					<line fill="none" stroke="#C346FF" stroke-width="3.25" stroke-linecap="round" stroke-linejoin="round" x1="452.5" y1="629.993" x2="454.5" y2="629.993"/>
			</g>
		</g>
	</g>
</g>
<g id="_x32_D_x24_AG-GUIDES">
</g>
<g id="_x32_D_x24_AG-DETAILS-DIAGRAM">
</g>
<g id="_x32_D_x24_AG-DETAILS">
</g>
<g id="_x32_D_x24_AG-POP-CULTURE">
	<g id="POLYLINE_1319_">
		
			<path fill="none" stroke="#C346FF" stroke-width="2.75" stroke-linecap="round" stroke-linejoin="round" stroke-miterlimit="10" d="
			M326.061,323.247c-0.618,0.141-1.271,0.205-1.895,0.067c-0.814-0.19-1.552-0.721-2.27-1.129c-0.635-0.388-1.293-0.789-1.838-1.299
			c-0.316-0.305-0.661-0.714-0.575-1.184c0.105-0.466,0.583-0.709,0.994-0.867c1.069-0.37,2.225-0.455,3.348-0.516
			c1.522-0.054,3.08-0.006,4.571,0.329c0.642,0.165,1.774,0.449,1.614,1.316c-0.119,0.545-0.525,1.021-0.887,1.429
			C328.306,322.284,327.257,322.994,326.061,323.247z"/>
	</g>
	<g id="POLYLINE_1318_">
		
			<path fill="none" stroke="#C346FF" stroke-width="2.75" stroke-linecap="round" stroke-linejoin="round" stroke-miterlimit="10" d="
			M283.219,295.689c0.219-9.423-6.864-17.554-16.477-17.594c-9.988-0.011-17.893,8.685-17.944,18.493
			c-0.113,11.568,10.353,20.108,21.61,16.603c3.818-1.203,7.165-3.76,9.429-7.05C281.953,303.088,283.151,299.404,283.219,295.689z"
			/>
	</g>
	<g id="POLYLINE_1317_">
		
			<path fill="none" stroke="#C346FF" stroke-width="2.75" stroke-linecap="round" stroke-linejoin="round" stroke-miterlimit="10" d="
			M365.63,296.181c-0.219-9.423,6.864-17.554,16.477-17.594c9.988-0.011,17.893,8.685,17.944,18.493
			c0.113,11.568-10.353,20.108-21.61,16.603c-3.818-1.203-7.165-3.76-9.429-7.05C366.896,303.58,365.699,299.896,365.63,296.181z"/>
	</g>
	<g id="POLYLINE_1316_">
		
			<polyline fill="none" stroke="#C346FF" stroke-width="2.75" stroke-linecap="round" stroke-linejoin="round" stroke-miterlimit="10" points="
			439.936,459.631 439.895,441.463 448.463,454.218 449.665,446.721 455.044,454.675 456.646,443.803 464.543,456.678 
			466.019,448.828 		"/>
	</g>
	<g id="POLYLINE_1315_">
		
			<path fill="none" stroke="#C346FF" stroke-width="2.75" stroke-linecap="round" stroke-linejoin="round" stroke-miterlimit="10" d="
			M435.526,492.098l42.02,3.473c-3.127-17.302-7.628-34.862-13.07-51.572c24.626,4.111,50.604,7.191,75.521,8.619
			c-6.338-29.533-14.687-60.022-24.091-88.732c28.402,3.529,62.362,6.741,90.922,8.619c21.432-34.986,38.688-73.045,50.636-112.301
			c-71.281,7.851-143.208,20.752-212.531,39.224c9.288,36.363,21.297,72.586,36.121,107.077
			c-17.635,0.382-35.418,2.499-52.654,6.245c3.848,19.056,8.797,38.78,14.752,57.284h-12.278"/>
	</g>
	<g id="POLYLINE_1314_">
		
			<path fill="none" stroke="#C346FF" stroke-width="2.75" stroke-linecap="round" stroke-linejoin="round" stroke-miterlimit="10" d="
			M378.061,615.052c-0.712,2.879-1.484,5.854-1.652,8.822c-0.078,1.598,0.165,3.403,1.414,4.53c0.594,0.537,1.354,0.85,2.12,1.051
			c1.869,0.47,3.885,0.47,5.804,0.518l30.838,0.02c0.431-0.005,1.013,0.003,1.438-0.023c0.621-0.033,1.257-0.1,1.84-0.331
			c0.417-0.164,0.797-0.43,1.07-0.787c0.519-0.685,0.726-1.553,0.817-2.393c0.09-0.997,0.032-2.028-0.282-2.983
			c-0.21-0.605-0.556-1.157-0.927-1.675c-1.845-2.463-4.341-4.848-6.484-7.067"/>
	</g>
	<g id="POLYLINE_1313_">
		
			<path fill="none" stroke="#C346FF" stroke-width="2.75" stroke-linecap="round" stroke-linejoin="round" stroke-miterlimit="10" d="
			M241.986,616.905c-1.403,1.273-5.226,4.4-6.451,5.74c-0.413,0.446-0.796,0.931-1.089,1.465c-0.621,1.141-0.919,2.526-0.568,3.797
			c0.154,0.547,0.469,1.063,0.947,1.382c1.048,0.686,2.548,0.656,3.764,0.698l33.656,0.007c0.555-0.011,1.675,0.006,2.211-0.029
			c0.663-0.034,1.343-0.092,1.972-0.318c0.436-0.155,0.837-0.409,1.164-0.736c1.038-1.066,1.52-2.57,1.653-4.026
			c0.112-1.225-0.137-2.455-0.439-3.637l-1.726-6.26"/>
	</g>
	<g id="POLYLINE_1312_">
		
			<path fill="none" stroke="#C346FF" stroke-width="2.75" stroke-linecap="round" stroke-linejoin="round" stroke-miterlimit="10" d="
			M224.648,434.805c-1.981,17.594-4.914,36.494-8.322,53.847c-2.668,13.72-8.546,40.597-10.151,54.082
			c-0.944,7.6-1.419,15.383-0.491,23.005c1.323,11.324,6.039,22.02,12.124,31.57c2.428,3.756,5.154,7.415,8.262,10.638
			c2.738,2.842,5.904,5.348,9.521,6.97c3.815,1.742,8.028,2.426,12.188,2.68c6.255,0.36,12.655,0.135,18.872-0.632
			c6.651-0.799,13.236-2.452,19.419-5.042c5.129-2.08,12.196-5.672,17.428-7.433c3.948-1.348,8.075-2.27,12.207-2.828
			c7.934-0.986,16.092-1.296,24.009-0.011c4.262,0.698,8.415,2.107,12.408,3.726c8.789,3.714,18.232,7.621,27.425,10.09
			c5.157,1.419,10.507,2.404,15.871,2.348c4.334-0.035,8.713-0.609,12.946-1.527c3.443-0.781,6.931-1.743,10.052-3.429
			c5.319-2.922,9.352-7.783,12.732-12.727c3.918-5.84,6.806-12.376,9.052-19.024c3.397-9.976,5.078-20.582,4.689-31.122
			c-0.259-8.753-1.527-17.707-2.989-26.338c-3.424-19.894-9.576-44.382-13.004-64.273c-1.486-8.748-2.973-18.226-3.72-27.065
			c-0.114-1.596-0.241-3.324-0.144-4.928"/>
	</g>
	<g id="POLYLINE_1311_">
		
			<path fill="none" stroke="#C346FF" stroke-width="2.75" stroke-linecap="round" stroke-linejoin="round" stroke-miterlimit="10" d="
			M382.159,409.756c-11.761,17.901-23.023,36.692-30.375,56.884c-3.235,8.868-5.597,18.18-6.473,27.59
			c-0.063,0.697-0.143,1.444-0.102,2.143c0.019,0.319,0.076,0.639,0.173,0.943c0.42,1.261,1.168,2.672,1.622,3.921
			c0.268,0.711,0.341,1.313,0.201,2.067c-0.233,1.503-0.6,3.137-0.56,4.658c0.016,0.197,0.05,0.398,0.142,0.575
			c0.148,0.295,0.468,0.439,0.771,0.523c0.904,0.227,1.877,0.336,2.701,0.802c0.814,0.452,1.44,1.175,2.01,1.898
			c0.261,0.356,0.82,1.113,1.127,1.415c0.123,0.116,0.262,0.218,0.415,0.289c0.273,0.129,0.577,0.171,0.876,0.193
			c1.004,0.06,2.298-0.062,3.3,0.029c0.224,0.021,0.451,0.059,0.664,0.133c0.228,0.078,0.439,0.21,0.602,0.388
			c0.497,0.596,0.85,1.458,1.7,2.18c0.457,0.399,0.999,0.523,1.594,0.506c1.276-0.015,3.062-0.425,4.342-0.476
			c0.172,0,0.347,0.02,0.505,0.091c0.125,0.056,0.238,0.138,0.342,0.226c0.626,0.569,1.469,1.551,2.081,2.135
			c0.369,0.35,0.754,0.715,1.227,0.918c0.205,0.086,0.438,0.125,0.656,0.069c0.179-0.047,0.332-0.16,0.468-0.282
			c0.949-0.955,2.106-2.716,2.969-3.765c0.797-1.02,1.679-1.995,2.675-2.824c5.482-4.308,11.403-8.336,16.769-13.105
			c4.525-3.943,8.942-8.205,12.877-12.741c2.802-3.242,5.399-6.738,7.349-10.565c3.648-7.165,5.177-15.311,6.739-23.138
			c2.18-12.565,4.535-25.519,3.178-38.3c-0.737-7.971-2.874-17.175-4.449-25.051c-0.7-3.447-1.218-7.049-1.384-10.566
			c-0.057-2.494-0.448-7.236-0.133-9.754c0.158-1.174,0.534-2.335,1.205-3.319"/>
	</g>
	<g id="POLYLINE_1310_">
		
			<path fill="none" stroke="#C346FF" stroke-width="2.75" stroke-linecap="round" stroke-linejoin="round" stroke-miterlimit="10" d="
			M230.54,368.06c0.457,5.499,0.679,10.796-0.285,16.261l-3.815,22.313c-1.072,6.899-1.957,14.011-2.004,20.994
			c-0.06,6.675,0.639,13.436,1.854,19.996c2.27,11.751,5.868,23.47,11.998,33.812c7.025,11.692,17.551,20.904,28.904,28.269
			c1.907,1.26,7.239,4.463,8.932,5.852c1.324,1.054,2.539,2.544,3.664,3.81c0.378,0.41,0.763,0.843,1.221,1.164
			c0.216,0.147,0.46,0.27,0.725,0.289c0.201,0.015,0.403-0.038,0.582-0.127c0.648-0.343,1.347-1.138,1.898-1.623
			c0.705-0.632,1.46-1.292,2.392-1.548c1.055-0.29,2.218,0.058,3.256,0.278c0.62,0.119,1.318,0.225,1.893-0.101
			c0.222-0.126,0.403-0.313,0.547-0.522c0.508-0.765,0.742-1.748,1.034-2.611c0.15-0.432,0.312-0.964,0.81-1.091
			c0.76-0.187,2.351,0.125,3.17,0.16c0.7,0.039,1.465,0.128,2.135-0.12c0.507-0.196,0.734-0.639,0.884-1.132
			c0.201-0.694,0.435-1.434,0.93-1.979c0.5-0.58,1.202-0.935,1.885-1.252c0.74-0.372,1.835-0.731,2.475-1.254
			c0.166-0.138,0.311-0.31,0.389-0.513c0.066-0.169,0.085-0.353,0.075-0.533c-0.069-0.728-0.415-1.568-0.592-2.277
			c-0.544-2.065-1.239-4.259-0.668-6.391c0.225-0.934,0.637-2.093,0.743-3.047c0.076-0.66,0.028-1.333-0.048-1.991
			c-4.577-29.762-21.741-57.729-35.414-84.131"/>
	</g>
	<g id="POLYLINE_1309_">
		
			<path fill="none" stroke="#C346FF" stroke-width="2.75" stroke-linecap="round" stroke-linejoin="round" stroke-miterlimit="10" d="
			M224.629,357.224c3.645,5.692,8.784,10.996,15.464,12.848c3.444,0.94,7.22,0.61,10.301-1.257c2.763-1.638,4.816-4.273,6.176-7.149
			c3.086-6.666,3.107-14.375,1.705-21.473c-1.795-8.616-5.838-16.99-12.306-23.06c-3.005-2.769-6.643-5.041-10.71-5.775
			c-8.29-1.457-14.086,4.289-16.386,11.778"/>
	</g>
	<g id="POLYLINE_1308_">
		
			<path fill="none" stroke="#C346FF" stroke-width="2.75" stroke-linecap="round" stroke-linejoin="round" stroke-miterlimit="10" d="
			M424.119,358.608c-2.977,4.501-6.858,8.596-11.754,10.992c-2.47,1.196-5.233,1.901-7.988,1.714
			c-2.006-0.129-3.979-0.749-5.696-1.795c-2.713-1.639-4.732-4.241-6.079-7.078c-3.095-6.662-3.125-14.371-1.732-21.471
			c1.761-8.511,5.716-16.779,12.029-22.844c2.939-2.775,6.488-5.076,10.482-5.929c8.091-1.697,14.051,3.501,16.595,10.845"/>
	</g>
	<g id="POLYLINE_1307_">
		
			<path fill="none" stroke="#C346FF" stroke-width="2.75" stroke-linecap="round" stroke-linejoin="round" stroke-miterlimit="10" d="
			M486.401,230.738c6.197-2.145,10.278-7.717,13.657-13.048c2.42-3.824,4.272-8.029,5.746-12.299
			c1.293-3.748,2.504-7.748,3.369-11.617c0.508-2.382,0.952-4.915,0.242-7.302c-0.224-0.79-0.584-1.565-1.179-2.143
			c-1.346-1.299-3.372-1.396-5.141-1.296"/>
	</g>
	<g id="POLYLINE_1306_">
		
			<path fill="none" stroke="#C346FF" stroke-width="2.75" stroke-linecap="round" stroke-linejoin="round" stroke-miterlimit="10" d="
			M158.652,140.734c-1.218,0.379-2.405,0.94-3.363,1.796c-0.801,0.708-1.408,1.62-1.802,2.611c-0.593,1.48-0.785,3.094-0.919,4.672
			c-0.516,5.71,0.599,11.433,2.106,16.919c2.58,8.896,5.774,17.828,9.906,26.127c0.684,1.251,1.485,2.829,2.528,3.783"/>
	</g>
	<g id="POLYLINE_1305_">
		
			<path fill="none" stroke="#C346FF" stroke-width="2.75" stroke-linecap="round" stroke-linejoin="round" stroke-miterlimit="10" d="
			M234.08,242.615c0.193,0.664,0.016,1.355-0.186,1.994c-0.861,2.441-2.087,5.191-2.865,7.659
			c-1.596,4.737-2.866,9.914-3.999,14.784c-2.953,13.245-5.61,27.263-7.15,40.742c-1.453,13.076-1.63,26.558,1.467,39.416
			c2.215,8.858,5.98,17.521,12.029,24.447c5.368,6.182,12.161,11.016,19.245,15.044c11.773,6.679,24.845,10.926,38.163,13.189
			c31.445,5.141,64.545,3.054,94.428-8.384c11.403-4.453,22.873-10.207,30.868-19.741c4.164-4.959,7.282-10.77,9.521-16.829
			c2.789-7.545,4.236-15.579,4.457-23.614c0.241-7.938-0.539-16.096-1.471-23.977c-1.256-9.864-2.866-20.613-4.77-30.368
			c-1.476-7.554-3.574-15.202-6.106-22.469c-0.521-1.677-2.834-7.491-3.051-9.183c-0.016-0.166-0.014-0.34,0.013-0.505
			c0.029-0.17,0.098-0.336,0.211-0.468c0.188-0.223,0.472-0.349,0.745-0.436c0.323-0.104,0.654-0.155,0.988-0.204
			c2.046-0.273,5.337-0.338,7.25-0.513c26.41-1.976,52.684-7.92,77.233-17.887c9.108-3.755,18.128-8.161,26.434-13.475
			c9.161-5.936,17.796-12.921,25.538-20.613c1.003-1.07,2.046-2.183,2.814-3.44c0.283-0.477,0.533-0.992,0.607-1.546
			c0.05-0.397,0.01-0.82-0.188-1.173c-0.191-0.334-0.506-0.574-0.836-0.762c-1.252-0.664-2.685-0.936-4.062-1.219
			c-3.388-0.625-6.966-0.833-10.407-0.983c-7.186-0.272-15.282-0.109-22.483,0.124c-21.181,0.742-42.662,2.826-63.175,8.329
			c-11.585,3.01-23.793,7.153-35.086,11.182c-9.635,3.556-26.502,9.621-35.823,13.65c-0.462,0.163-0.952,0.331-1.447,0.248
			c-0.348-0.057-0.666-0.218-0.971-0.386c-0.142-0.081-0.314-0.183-0.452-0.269c0,0-1.209-0.765-1.209-0.765
			c-5.155-3.043-11.391-4.934-17.092-6.733c-10.423-3.11-21.249-5.355-32.112-6.091c-10.948-0.703-22.018,0.164-32.812,2.051
			c-10.014,1.771-19.973,4.533-29.114,9.051l-4.714,2.384c-0.726,0.332-1.45,0.71-2.239,0.86c-0.19,0.032-0.384,0.045-0.574,0.011
			c-0.483-0.076-0.843-0.51-1.17-0.842c-11.928-12.404-25.105-27.272-38.124-38.364c-7.828-6.722-16.488-12.762-25.455-17.864
			c-8.887-5.06-18.405-9.574-27.791-13.623c-9.756-4.173-19.908-8.096-30.054-11.209c-7.891-2.375-16.038-4.499-24.227-5.512
			c-1.293-0.119-2.647-0.297-3.933-0.036c-0.397,0.089-0.809,0.273-1.006,0.648c-0.202,0.408-0.152,0.887-0.054,1.318
			c0.132,0.554,0.368,1.086,0.613,1.598c0.66,1.365,1.566,2.789,2.367,4.083c8.301,12.746,17.17,25.618,27.536,36.78
			c8.038,8.751,20.251,18.416,29.396,26.156c9.672,8.032,20.133,16.211,30.806,22.829c7.984,5.189,20.615,12.005,28.907,16.837
			c1.015,0.615,2.073,1.279,2.996,2.03C233.163,241.128,233.833,241.762,234.08,242.615z"/>
	</g>
	<g id="POLYLINE_1304_">
		
			<path fill="none" stroke="#C346FF" stroke-width="2.75" stroke-linecap="round" stroke-linejoin="round" stroke-miterlimit="10" d="
			M290.809,338.924c1.897,3.249,4.431,6.344,7.915,7.946c2.414,1.109,5.146,1.421,7.777,1.206c3.551-0.302,6.79-2.009,9.866-3.691
			c2.127-1.125,4.81-2.875,7.083-3.616c0.702-0.222,1.443-0.339,2.179-0.289c1.53,0.11,2.988,0.688,4.354,1.355
			c3.466,1.706,6.85,4.502,10.568,5.663c1.836,0.573,3.798,0.609,5.694,0.368c1.75-0.22,3.526-0.552,5.12-1.337
			c3.313-1.605,5.491-4.804,7.037-8.04"/>
	</g>
</g>
<g id="_x32_D_x24_AG-OUTLINE">
	<g id="POLYLINE_1584_">
		
			<path fill="none" stroke="#C346FF" stroke-width="3.5" stroke-linecap="round" stroke-linejoin="round" stroke-miterlimit="10" d="
			M435.526,492.098l42.02,3.473c-3.112-17.264-7.647-34.892-13.07-51.572c24.626,4.111,50.604,7.191,75.521,8.619
			c-6.338-29.533-14.687-60.022-24.091-88.732c28.402,3.529,62.362,6.741,90.922,8.619c21.432-34.986,38.688-73.045,50.636-112.301
			c-71.281,7.851-143.208,20.752-212.531,39.224c9.288,36.363,21.297,72.586,36.121,107.077
			c-17.635,0.382-35.418,2.499-52.654,6.245c3.848,19.055,8.797,38.781,14.752,57.284h-12.278
			c-2.516-13.3-5.002-27.089-5.919-40.599c-0.01-0.706,0.103-2.637,0.133-3.369c0.605-13.11-3.093-26.522-5.425-39.332
			c-0.802-4.54-0.862-9.453-1.027-14.056c-0.04-1.804,0.022-3.686,0.791-5.351c5.407-8.374,8.68-18.038,9.986-27.898
			c1.092-8.217,0.725-16.626-0.043-24.857c-0.862-9.108-2.391-19.204-3.861-28.255c-1.282-7.659-2.817-15.585-5.005-23.038
			c-1.345-4.741-3.489-10.769-5.156-15.447c-0.218-0.637-0.46-1.336-0.609-1.994c-0.082-0.398-0.155-0.826-0.014-1.219
			c0.101-0.277,0.346-0.476,0.61-0.592c0.293-0.132,0.612-0.203,0.926-0.26c1.528-0.259,6-0.431,7.602-0.568
			c27.917-2.107,55.723-8.581,81.452-19.674c9.838-4.296,19.467-9.443,28.179-15.736c4.574-3.271,9.109-6.991,13.335-10.702
			c2.36-2.107,4.918-4.386,7.045-6.727c0.796-0.898,1.615-1.833,2.188-2.895c0.233-0.443,0.422-0.925,0.444-1.43
			c0.015-0.361-0.05-0.738-0.251-1.044c-0.221-0.336-0.563-0.57-0.914-0.755c-1.336-0.656-2.838-0.935-4.289-1.216
			c-3.822-0.66-7.84-0.845-11.715-0.975c-8.815-0.253-19.027,0.081-27.869,0.485c-18.856,0.905-37.864,3.146-56.13,8.025
			c-11.585,3.011-23.793,7.153-35.086,11.182c-9.633,3.555-26.503,9.621-35.823,13.65c-0.462,0.163-0.952,0.331-1.447,0.248
			c-0.348-0.057-0.666-0.218-0.971-0.386c-0.142-0.081-0.314-0.183-0.452-0.269c0,0-1.209-0.765-1.209-0.765
			c-5.155-3.043-11.391-4.934-17.092-6.733c-10.423-3.11-21.249-5.355-32.112-6.091c-10.948-0.703-22.018,0.164-32.812,2.051
			c-10.014,1.771-19.973,4.533-29.114,9.051l-4.714,2.384c-0.602,0.28-1.199,0.575-1.835,0.764c-0.249,0.073-0.509,0.131-0.77,0.127
			c-0.397,0.001-0.716-0.201-0.991-0.468c-15.773-16.344-31.74-35.01-50.422-48.033c-14.623-10.301-31.146-18.036-47.634-24.847
			c-10.476-4.252-21.389-8.184-32.345-10.996c-5.376-1.349-10.945-2.608-16.465-3.172c-0.796-0.056-1.653-0.129-2.453-0.054
			c-0.341,0.031-0.687,0.084-1.007,0.209c-0.204,0.079-0.396,0.197-0.538,0.366c-0.391,0.472-0.258,1.206-0.102,1.748
			c0.514,1.593,1.502,3.092,2.352,4.528c6.205,9.74,13.108,19.662,20.31,28.682c4.281,5.35,9.077,10.586,14.064,15.285
			c5.409,5.218,14.595,12.694,20.432,17.628c7.462,6.23,15.615,12.88,23.555,18.457c6.931,4.885,14.627,9.597,21.963,13.865
			c2.093,1.21,16.291,9.116,18.066,10.317c0.776,0.504,1.579,1.052,2.259,1.684c0.431,0.407,0.836,0.867,1.055,1.425
			c0.142,0.356,0.185,0.748,0.143,1.128c-0.047,0.467-0.194,0.921-0.344,1.363c-0.279,0.928-1.115,2.759-1.429,3.659
			c-2.301,5.931-3.912,12.322-5.344,18.514c-2.16,9.478-4.191,20.183-5.687,29.79c-2.58,16.822-4.01,34.351,0.17,51.032
			c1.869,7.147,4.722,14.148,9.026,20.185c0.457,5.499,0.679,10.796-0.285,16.261l-3.815,22.313
			c-1.466,9.274-2.471,18.782-1.791,28.171c-1.986,17.592-4.911,36.495-8.322,53.847c-2.824,15.025-8.955,41.83-10.455,56.683
			c-0.772,7.088-1.031,14.333-0.058,21.414c1.265,9.535,4.976,18.616,9.762,26.905c3.429,5.847,7.402,11.518,12.394,16.142
			c2.037,1.858,4.309,3.503,6.785,4.725c2.275,1.133,4.738,1.908,7.232,2.383c-1.403,1.273-5.226,4.4-6.451,5.74
			c-0.413,0.446-0.796,0.931-1.089,1.465c-0.621,1.141-0.919,2.526-0.568,3.797c0.154,0.547,0.469,1.063,0.947,1.382
			c1.048,0.686,2.548,0.656,3.764,0.698l33.656,0.007c0.555-0.011,1.675,0.006,2.211-0.029c0.663-0.034,1.343-0.092,1.972-0.318
			c0.436-0.155,0.837-0.409,1.164-0.736c1.038-1.066,1.52-2.57,1.653-4.026c0.112-1.225-0.137-2.455-0.439-3.637l-1.726-6.26
			c10.199-2.55,19.674-8.73,29.671-11.502c6.629-1.854,13.585-2.518,20.449-2.663c4.568-0.068,9.216,0.176,13.706,1.047
			c3.839,0.736,7.598,2.047,11.216,3.509c8.269,3.519,17.317,7.231,25.939,9.674c-0.712,2.879-1.484,5.854-1.652,8.822
			c-0.078,1.598,0.165,3.403,1.414,4.53c0.594,0.537,1.354,0.85,2.12,1.051c1.869,0.47,3.885,0.47,5.804,0.518l30.838,0.02
			c0.431-0.005,1.013,0.003,1.438-0.023c0.621-0.033,1.257-0.1,1.84-0.331c0.417-0.164,0.797-0.43,1.07-0.787
			c0.519-0.685,0.726-1.553,0.817-2.393c0.09-0.997,0.032-2.028-0.282-2.983c-0.21-0.605-0.556-1.157-0.927-1.675
			c-1.845-2.463-4.341-4.848-6.484-7.067c2.201-0.743,4.345-1.727,6.273-3.028c2.267-1.522,4.272-3.434,6.096-5.457
			c6.735-7.54,11.121-16.904,14.206-26.458c1.775-5.555,3.113-11.361,3.766-17.159c0.71-6.192,0.645-12.553,0.158-18.76
			C443.159,526.757,439.109,508.898,435.526,492.098z"/>
	</g>
</g>
<g id="Layer_1">
</g>
</svg>
